<svg width="7" height="12" viewBox="0 0 7 12" fill="none" xmlns="http://www.w3.org/2000/svg">
<path d="M0.627801 1.20737L0.621705 1.20055L0.615364 1.19396C0.460852 1.03337 0.462666 0.769296 0.614079 0.613096L0.614723 0.61243C0.759824 0.462185 0.981837 0.463429 1.12342 0.610726C1.12354 0.610851 1.12366 0.610976 1.12378 0.611101L5.98308 5.70711L5.98307 5.70712L5.98528 5.70941C6.13755 5.86708 6.13935 6.13085 5.984 6.2929L5.98308 6.29387L1.12441 11.3892C1.1242 11.3894 1.12399 11.3897 1.12379 11.3899C0.982109 11.5364 0.758726 11.5373 0.615042 11.3889C0.460855 11.2283 0.462772 10.9644 0.614078 10.8084L0.621164 10.801L0.627947 10.7934L4.61383 6.33164L4.91154 5.99839L4.61369 5.66526L0.627801 1.20737Z" fill="#048741" stroke="#048741"/>
</svg>
