<svg width="29" height="39" viewBox="0 0 29 39" fill="none" xmlns="http://www.w3.org/2000/svg">
<circle cx="14.5" cy="36.5" r="2.5" fill="white"/>
<path d="M16.5734 28.3474C23.3223 27.3452 28.5 21.5277 28.5 14.5C28.5 6.76801 22.232 0.5 14.5 0.5C6.76801 0.5 0.5 6.76801 0.5 14.5C0.5 21.5277 5.67766 27.3452 12.4265 28.3474C13.1034 28.448 13.7958 28.5 14.5 28.5C15.2042 28.5 15.8966 28.448 16.5734 28.3474Z" fill="white" stroke="#FC1827"/>
<path d="M16.8665 21.4776C16.6638 21.4776 16.5036 21.3173 16.5036 21.1146C16.5036 20.9119 16.6638 20.7517 16.8665 20.7517C17.0692 20.7517 17.2287 20.9119 17.2287 21.1146C17.2287 21.3173 17.0692 21.4776 16.8665 21.4776ZM20.3649 9.47952L15.4587 6.31995C14.7972 5.89335 13.944 5.89335 13.2826 6.31995L8.37564 9.47952C7.51221 10.0349 7 10.9744 7 11.9988V18.2111C7 19.9614 8.41881 21.3919 10.1786 21.3919H12.4828C13.677 21.3919 14.648 20.4209 14.648 19.2253V18.2748C16.429 18.1255 18.338 16.5033 18.818 13.0767C18.8824 12.5857 18.7331 12.0844 18.4127 11.7105C18.0929 11.3374 17.6239 11.1339 17.1329 11.1339H16.7063V11.0059C16.7063 10.7286 16.4824 10.5047 16.2051 10.5047C15.9277 10.5047 15.7038 10.7286 15.7038 11.0059V11.7961C15.7038 12.0735 15.9277 12.2974 16.2051 12.2974C16.4824 12.2974 16.7063 12.0735 16.7063 11.7961V11.6681H17.1329C17.4636 11.6681 17.7834 11.8174 18.0073 12.0625C18.2319 12.3193 18.3278 12.6603 18.2846 13.002C17.8368 16.2794 16.0024 17.7524 14.3809 17.7524C12.7601 17.7524 10.925 16.2794 10.4771 13.002C10.4347 12.6603 10.5306 12.3193 10.7545 12.0625C10.9784 11.8064 11.2989 11.6681 11.6289 11.6681H12.0562V11.7961C12.0562 12.0735 12.2801 12.2974 12.5574 12.2974C12.8347 12.2974 13.0587 12.0735 13.0587 11.7961V11.0059C13.0587 10.7286 12.8347 10.5047 12.5574 10.5047C12.2801 10.5047 12.0562 10.7286 12.0562 11.0059V11.1339H11.6289C11.1386 11.1339 10.6696 11.3476 10.3491 11.7105C10.0293 12.0844 9.88005 12.5754 9.94371 13.0767C10.4135 16.5033 12.3335 18.1255 14.1145 18.2748V19.2143C14.1145 20.1107 13.3894 20.8366 12.493 20.8366H10.1676C8.71735 20.8366 7.53342 19.6519 7.53342 18.2002V11.9879C7.53342 11.1449 7.94904 10.3766 8.66393 9.92806L13.5701 6.76849C14.0611 6.45897 14.6794 6.45897 15.1704 6.76849L20.0766 9.92806C20.7812 10.3766 21.2078 11.1559 21.2078 11.9879V18.2002C21.2078 19.6519 20.0239 20.8366 18.5729 20.8366H17.73C17.6129 20.4736 17.2719 20.2073 16.8768 20.2073C16.3865 20.2073 15.9811 20.6127 15.9811 21.1036C15.9811 21.5946 16.3865 22 16.8768 22C17.2821 22 17.6129 21.7337 17.73 21.3707H18.5729C20.3224 21.3707 21.7515 19.9512 21.7515 18.1899V11.9879C21.7405 10.9634 21.2291 10.0239 20.3649 9.47952Z" fill="#048741"/>
<circle cx="14.5" cy="36.5" r="1.5" fill="#FC1827"/>
</svg>
