<svg width="43" height="26" viewBox="0 0 43 26" fill="none" xmlns="http://www.w3.org/2000/svg">
<path fill-rule="evenodd" clip-rule="evenodd" d="M13.3696 0.0772889C14.8367 -0.00658203 16.3021 0.000127651 17.7691 0.000127651C17.7792 0.000127651 25.2031 0.000127651 25.2031 0.000127651C26.6988 0.000127651 28.1642 -0.00658203 29.6304 0.0772889C30.9634 0.152773 32.2618 0.313805 33.5543 0.673612C36.2751 1.43013 38.6511 3.01026 40.3686 5.25045C42.0759 7.47639 43 10.2014 43 12.9993C43 15.8006 42.0759 18.5239 40.3686 20.7498C38.6511 22.9892 36.2751 24.5701 33.5543 25.3266C32.2618 25.6865 30.9634 25.8466 29.6304 25.923C28.1642 26.0068 26.6988 25.9993 25.2317 25.9993C25.2216 25.9993 17.7961 26.0001 17.7961 26.0001C16.3021 25.9993 14.8367 26.0068 13.3696 25.923C12.0375 25.8466 10.739 25.6865 9.44651 25.3266C6.72571 24.5701 4.34975 22.9892 2.63227 20.7498C0.924921 18.5239 0 15.8006 0 13.0001C0 10.2014 0.924921 7.47639 2.63227 5.25045C4.34975 3.01026 6.72571 1.43013 9.44651 0.673612C10.739 0.313805 12.0375 0.152773 13.3696 0.0772889Z" fill="#C9C9C9"/>
<path fill-rule="evenodd" clip-rule="evenodd" d="M13.3824 24.3225C19.6687 24.3225 24.7647 19.2532 24.7647 12.9999C24.7647 6.74666 19.6687 1.67737 13.3824 1.67737C7.09605 1.67737 2 6.74666 2 12.9999C2 19.2532 7.09605 24.3225 13.3824 24.3225Z" fill="white"/>
</svg>
