<svg width="281" height="79" viewBox="0 0 281 79" fill="none" xmlns="http://www.w3.org/2000/svg">
<path d="M100.629 31.2062H103.718V47.8347H100.629V31.2062ZM92.0301 47.8347H88.942V31.2062H92.0301V47.8347ZM100.867 40.7082H91.7688V38.0714H100.867V40.7082ZM111.787 38.1189H120.054V40.6607H111.787V38.1189ZM112.024 45.2454H121.408V47.8347H108.936V31.2062H121.075V33.7955H112.024V45.2454ZM123.262 47.8347L130.744 31.2062H133.785L141.292 47.8347H138.061L131.623 32.8453H132.859L126.445 47.8347H123.262ZM126.706 43.9864L127.537 41.5634H136.517L137.348 43.9864H126.706ZM144.169 47.8347V31.2062H147.258V45.2217H155.952V47.8347H144.169ZM160.972 47.8347V33.8193H155.461V31.2062H169.571V33.8193H164.06V47.8347H160.972ZM184.339 31.2062H187.427V47.8347H184.339V31.2062ZM175.74 47.8347H172.652V31.2062H175.74V47.8347ZM184.577 40.7082H175.479V38.0714H184.577V40.7082Z" fill="#048741"/>
<path d="M200.343 48.0723C199.076 48.0723 197.896 47.8664 196.803 47.4546C195.726 47.027 194.784 46.4332 193.976 45.673C193.185 44.897 192.567 43.9864 192.124 42.9412C191.68 41.896 191.458 40.7557 191.458 39.5205C191.458 38.2852 191.68 37.145 192.124 36.0998C192.567 35.0545 193.193 34.1518 194 33.3917C194.808 32.6157 195.75 32.0218 196.827 31.6101C197.904 31.1825 199.084 30.9687 200.367 30.9687C201.729 30.9687 202.972 31.2062 204.096 31.6813C205.221 32.1406 206.171 32.8295 206.947 33.748L204.951 35.6247C204.349 34.9754 203.676 34.4923 202.932 34.1756C202.188 33.843 201.38 33.6767 200.509 33.6767C199.638 33.6767 198.838 33.8193 198.11 34.1043C197.397 34.3894 196.772 34.7932 196.233 35.3158C195.711 35.8384 195.299 36.4561 194.998 37.1687C194.713 37.8814 194.57 38.6653 194.57 39.5205C194.57 40.3757 194.713 41.1596 194.998 41.8722C195.299 42.5849 195.711 43.2025 196.233 43.7251C196.772 44.2477 197.397 44.6515 198.11 44.9366C198.838 45.2217 199.638 45.3642 200.509 45.3642C201.38 45.3642 202.188 45.2058 202.932 44.8891C203.676 44.5565 204.349 44.0577 204.951 43.3925L206.947 45.2929C206.171 46.1956 205.221 46.8845 204.096 47.3596C202.972 47.8347 201.721 48.0723 200.343 48.0723ZM222.356 31.2062H225.444V47.8347H222.356V31.2062ZM213.757 47.8347H210.669V31.2062H213.757V47.8347ZM222.594 40.7082H213.496V38.0714H222.594V40.7082ZM233.514 38.1189H241.78V40.6607H233.514V38.1189ZM233.751 45.2454H243.134V47.8347H230.663V31.2062H242.802V33.7955H233.751V45.2454ZM255.037 48.0723C253.77 48.0723 252.59 47.8664 251.497 47.4546C250.42 47.027 249.478 46.4332 248.67 45.673C247.879 44.897 247.261 43.9864 246.818 42.9412C246.374 41.896 246.152 40.7557 246.152 39.5205C246.152 38.2852 246.374 37.145 246.818 36.0998C247.261 35.0545 247.886 34.1518 248.694 33.3917C249.502 32.6157 250.444 32.0218 251.521 31.6101C252.598 31.1825 253.778 30.9687 255.06 30.9687C256.422 30.9687 257.666 31.2062 258.79 31.6813C259.914 32.1406 260.865 32.8295 261.641 33.748L259.645 35.6247C259.043 34.9754 258.37 34.4923 257.626 34.1756C256.882 33.843 256.074 33.6767 255.203 33.6767C254.332 33.6767 253.532 33.8193 252.804 34.1043C252.091 34.3894 251.466 34.7932 250.927 35.3158C250.405 35.8384 249.993 36.4561 249.692 37.1687C249.407 37.8814 249.264 38.6653 249.264 39.5205C249.264 40.3757 249.407 41.1596 249.692 41.8722C249.993 42.5849 250.405 43.2025 250.927 43.7251C251.466 44.2477 252.091 44.6515 252.804 44.9366C253.532 45.2217 254.332 45.3642 255.203 45.3642C256.074 45.3642 256.882 45.2058 257.626 44.8891C258.37 44.5565 259.043 44.0577 259.645 43.3925L261.641 45.2929C260.865 46.1956 259.914 46.8845 258.79 47.3596C257.666 47.8347 256.415 48.0723 255.037 48.0723ZM268.118 43.9151L267.952 40.2569L276.67 31.2062H280.138L272.893 38.9028L271.183 40.7795L268.118 43.9151ZM265.363 47.8347V31.2062H268.451V47.8347H265.363ZM276.955 47.8347L270.589 40.2569L272.632 38.0002L280.566 47.8347H276.955Z" fill="white"/>
<path d="M48.716 76.4204C47.7152 76.4204 46.924 75.6292 46.924 74.6284C46.924 73.6277 47.7152 72.8364 48.716 72.8364C49.7168 72.8364 50.5044 73.6277 50.5044 74.6284C50.5044 75.6292 49.7168 76.4204 48.716 76.4204ZM65.9891 17.1801L41.7648 1.57973C38.4988 -0.526576 34.2862 -0.526576 31.0201 1.57973L6.7922 17.1801C2.52901 19.9223 0 24.5612 0 29.6192V60.2925C0 68.9345 7.00536 75.9977 15.6943 75.9977H27.0713C32.9675 75.9977 37.7618 71.2034 37.7618 65.3V60.6069C46.5555 59.8698 55.9815 51.8601 58.3515 34.941C58.6695 32.5168 57.9324 30.0419 56.35 28.1958C54.7712 26.3532 52.4553 25.3488 50.0311 25.3488H47.9248V24.7166C47.9248 23.3473 46.8192 22.2418 45.4499 22.2418C44.0807 22.2418 42.9751 23.3473 42.9751 24.7166V28.6185C42.9751 29.9878 44.0807 31.0933 45.4499 31.0933C46.8192 31.0933 47.9248 29.9878 47.9248 28.6185V27.9862H50.0311C51.6641 27.9862 53.2429 28.7232 54.3485 29.9336C55.4576 31.2017 55.9309 32.8853 55.7177 34.5725C53.5067 50.7546 44.4492 58.0273 36.4431 58.0273C28.4405 58.0273 19.3795 50.7546 17.1684 34.5725C16.9588 32.8853 17.4321 31.2017 18.5377 29.9336C19.6432 28.6691 21.2256 27.9862 22.855 27.9862H24.965V28.6185C24.965 29.9878 26.0705 31.0933 27.4398 31.0933C28.8091 31.0933 29.9146 29.9878 29.9146 28.6185V24.7166C29.9146 23.3473 28.8091 22.2418 27.4398 22.2418C26.0705 22.2418 24.965 23.3473 24.965 24.7166V25.3488H22.855C20.4344 25.3488 18.1186 26.4038 16.5361 28.1958C14.9573 30.0419 14.2203 32.4662 14.5346 34.941C16.8541 51.8601 26.3342 59.8698 35.128 60.6069V65.2458C35.128 69.6716 31.5476 73.2555 27.1218 73.2555H15.6401C8.47941 73.2555 2.63378 67.4063 2.63378 60.2383V29.565C2.63378 25.403 4.6859 21.6095 8.21567 19.3948L32.44 3.79442C34.8642 2.26617 37.9171 2.26617 40.3413 3.79442L64.5657 19.3948C68.0449 21.6095 70.1512 25.4572 70.1512 29.565V60.2383C70.1512 67.4063 64.3055 73.2555 57.1412 73.2555H52.9792C52.4011 71.4635 50.7175 70.1485 48.7666 70.1485C46.3459 70.1485 44.3444 72.15 44.3444 74.5742C44.3444 76.9985 46.3459 79 48.7666 79C50.7681 79 52.4011 77.6849 52.9792 75.8929H57.1412C65.7796 75.8929 72.8355 68.8839 72.8355 60.1878V29.565C72.7813 24.507 70.2559 19.8681 65.9891 17.1801Z" fill="#048741"/>
</svg>
