<svg width="261" height="74" viewBox="0 0 261 74" fill="none" xmlns="http://www.w3.org/2000/svg">
<path d="M93.1947 28.6H96.0547V44H93.1947V28.6ZM85.2307 44H82.3707V28.6H85.2307V44ZM93.4147 37.4H84.9887V34.958H93.4147V37.4ZM103.528 35.002H111.184V37.356H103.528V35.002ZM103.748 41.602H112.438V44H100.888V28.6H112.13V30.998H103.748V41.602ZM114.155 44L121.085 28.6H123.901L130.853 44H127.861L121.899 30.118H123.043L117.103 44H114.155ZM117.345 40.436L118.115 38.192H126.431L127.201 40.436H117.345ZM133.518 44V28.6H136.378V41.58H144.43V44H133.518ZM149.079 44V31.02H143.975V28.6H157.043V31.02H151.939V44H149.079ZM170.72 28.6H173.58V44H170.72V28.6ZM162.756 44H159.896V28.6H162.756V44ZM170.94 37.4H162.514V34.958H170.94V37.4Z" fill="#048741"/>
<path d="M185.541 44.22C184.368 44.22 183.275 44.0293 182.263 43.648C181.266 43.252 180.393 42.702 179.645 41.998C178.912 41.2793 178.34 40.436 177.929 39.468C177.519 38.5 177.313 37.444 177.313 36.3C177.313 35.156 177.519 34.1 177.929 33.132C178.34 32.164 178.919 31.328 179.667 30.624C180.415 29.9053 181.288 29.3553 182.285 28.974C183.283 28.578 184.375 28.38 185.563 28.38C186.825 28.38 187.976 28.6 189.017 29.04C190.059 29.4653 190.939 30.1033 191.657 30.954L189.809 32.692C189.252 32.0907 188.629 31.6433 187.939 31.35C187.25 31.042 186.502 30.888 185.695 30.888C184.889 30.888 184.148 31.02 183.473 31.284C182.813 31.548 182.234 31.922 181.735 32.406C181.251 32.89 180.87 33.462 180.591 34.122C180.327 34.782 180.195 35.508 180.195 36.3C180.195 37.092 180.327 37.818 180.591 38.478C180.87 39.138 181.251 39.71 181.735 40.194C182.234 40.678 182.813 41.052 183.473 41.316C184.148 41.58 184.889 41.712 185.695 41.712C186.502 41.712 187.25 41.5653 187.939 41.272C188.629 40.964 189.252 40.502 189.809 39.886L191.657 41.646C190.939 42.482 190.059 43.12 189.017 43.56C187.976 44 186.817 44.22 185.541 44.22ZM205.929 28.6H208.789V44H205.929V28.6ZM197.965 44H195.105V28.6H197.965V44ZM206.149 37.4H197.723V34.958H206.149V37.4ZM216.262 35.002H223.918V37.356H216.262V35.002ZM216.482 41.602H225.172V44H213.622V28.6H224.864V30.998H216.482V41.602ZM236.195 44.22C235.021 44.22 233.929 44.0293 232.917 43.648C231.919 43.252 231.047 42.702 230.299 41.998C229.565 41.2793 228.993 40.436 228.583 39.468C228.172 38.5 227.967 37.444 227.967 36.3C227.967 35.156 228.172 34.1 228.583 33.132C228.993 32.164 229.573 31.328 230.321 30.624C231.069 29.9053 231.941 29.3553 232.939 28.974C233.936 28.578 235.029 28.38 236.217 28.38C237.478 28.38 238.629 28.6 239.671 29.04C240.712 29.4653 241.592 30.1033 242.311 30.954L240.463 32.692C239.905 32.0907 239.282 31.6433 238.593 31.35C237.903 31.042 237.155 30.888 236.349 30.888C235.542 30.888 234.801 31.02 234.127 31.284C233.467 31.548 232.887 31.922 232.389 32.406C231.905 32.89 231.523 33.462 231.245 34.122C230.981 34.782 230.849 35.508 230.849 36.3C230.849 37.092 230.981 37.818 231.245 38.478C231.523 39.138 231.905 39.71 232.389 40.194C232.887 40.678 233.467 41.052 234.127 41.316C234.801 41.58 235.542 41.712 236.349 41.712C237.155 41.712 237.903 41.5653 238.593 41.272C239.282 40.964 239.905 40.502 240.463 39.886L242.311 41.646C241.592 42.482 240.712 43.12 239.671 43.56C238.629 44 237.471 44.22 236.195 44.22ZM248.31 40.37L248.156 36.982L256.23 28.6H259.442L252.732 35.728L251.148 37.466L248.31 40.37ZM245.758 44V28.6H248.618V44H245.758ZM256.494 44L250.598 36.982L252.49 34.892L259.838 44H256.494Z" fill="#34453C"/>
<path d="M45.1169 70.7746C44.1901 70.7746 43.4573 70.0418 43.4573 69.115C43.4573 68.1881 44.1901 67.4554 45.1169 67.4554C46.0438 67.4554 46.7732 68.1881 46.7732 69.115C46.7732 70.0418 46.0438 70.7746 45.1169 70.7746ZM61.114 15.9109L38.6793 1.46302C35.6545 -0.487674 31.7532 -0.487674 28.7284 1.46302L6.2904 15.9109C2.34217 18.4505 0 22.7467 0 27.431V55.8382C0 63.8417 6.48782 70.3831 14.5348 70.3831H25.0713C30.5319 70.3831 34.972 65.943 34.972 60.4757V56.1293C43.116 55.4467 51.8456 48.0287 54.0406 32.3596C54.335 30.1145 53.6525 27.8225 52.1869 26.1127C50.7247 24.4063 48.58 23.4761 46.3348 23.4761H44.3842V22.8905C44.3842 21.6224 43.3603 20.5986 42.0922 20.5986C40.8241 20.5986 39.8002 21.6224 39.8002 22.8905V26.5042C39.8002 27.7723 40.8241 28.7962 42.0922 28.7962C43.3603 28.7962 44.3842 27.7723 44.3842 26.5042V25.9186H46.3348C47.8472 25.9186 49.3094 26.6012 50.3333 27.7221C51.3605 28.8965 51.7988 30.4558 51.6014 32.0183C49.5537 47.0049 41.1653 53.7403 33.7507 53.7403C26.3394 53.7403 17.9477 47.0049 15.9 32.0183C15.7059 30.4558 16.1443 28.8965 17.1681 27.7221C18.192 26.551 19.6575 25.9186 21.1665 25.9186H23.1206V26.5042C23.1206 27.7723 24.1444 28.7962 25.4126 28.7962C26.6807 28.7962 27.7045 27.7723 27.7045 26.5042V22.8905C27.7045 21.6224 26.6807 20.5986 25.4126 20.5986C24.1444 20.5986 23.1206 21.6224 23.1206 22.8905V23.4761H21.1665C18.9247 23.4761 16.78 24.4531 15.3145 26.1127C13.8523 27.8225 13.1697 30.0676 13.4608 32.3596C15.6089 48.0287 24.3887 55.4467 32.5328 56.1293V60.4255C32.5328 64.5243 29.2169 67.8435 25.1181 67.8435H14.4847C7.85297 67.8435 2.4392 62.4264 2.4392 55.788V27.3808C2.4392 23.5263 4.33971 20.013 7.60871 17.9619L30.0434 3.51409C32.2885 2.09875 35.1158 2.09875 37.361 3.51409L59.7956 17.9619C63.0178 20.013 64.9685 23.5765 64.9685 27.3808V55.788C64.9685 62.4264 59.5547 67.8435 52.9197 67.8435H49.0652C48.5298 66.1839 46.9706 64.966 45.1638 64.966C42.922 64.966 41.0683 66.8196 41.0683 69.0648C41.0683 71.3099 42.922 73.1636 45.1638 73.1636C47.0174 73.1636 48.5298 71.9457 49.0652 70.2861H52.9197C60.9199 70.2861 67.4545 63.7949 67.4545 55.7412V27.3808C67.4044 22.6965 65.0655 18.4003 61.114 15.9109Z" fill="#048741"/>
</svg>
