<svg width="43" height="26" viewBox="0 0 43 26" fill="none" xmlns="http://www.w3.org/2000/svg">
<path fill-rule="evenodd" clip-rule="evenodd" d="M13.3696 0.0772889C14.8367 -0.00658203 16.3021 0.000127651 17.7691 0.000127651C17.7792 0.000127651 25.2031 0.000127651 25.2031 0.000127651C26.6988 0.000127651 28.1642 -0.00658203 29.6304 0.0772889C30.9634 0.152773 32.2618 0.313805 33.5543 0.673612C36.2751 1.43013 38.6511 3.01026 40.3686 5.25045C42.0759 7.47639 43 10.2014 43 12.9993C43 15.8006 42.0759 18.5239 40.3686 20.7498C38.6511 22.9892 36.2751 24.5701 33.5543 25.3266C32.2618 25.6865 30.9634 25.8466 29.6304 25.923C28.1642 26.0068 26.6988 25.9993 25.2317 25.9993C25.2216 25.9993 17.7961 26.0001 17.7961 26.0001C16.3021 25.9993 14.8367 26.0068 13.3696 25.923C12.0375 25.8466 10.739 25.6865 9.44651 25.3266C6.72571 24.5701 4.34975 22.9892 2.63227 20.7498C0.924921 18.5239 0 15.8006 0 13.0001C0 10.2014 0.924921 7.47639 2.63227 5.25045C4.34975 3.01026 6.72571 1.43013 9.44651 0.673612C10.739 0.313805 12.0375 0.152773 13.3696 0.0772889Z" fill="#34C759"/>
<path fill-rule="evenodd" clip-rule="evenodd" d="M29.9314 24.3225C36.2177 24.3225 41.3138 19.2532 41.3138 12.9999C41.3138 6.74666 36.2177 1.67737 29.9314 1.67737C23.6451 1.67737 18.5491 6.74666 18.5491 12.9999C18.5491 19.2532 23.6451 24.3225 29.9314 24.3225Z" fill="white"/>
</svg>
